<svg width="72" height="80" viewBox="0 0 72 80" fill="none" xmlns="http://www.w3.org/2000/svg">
<path d="M60 28H52C49.6 28 48 29.6 48 32C48 34.4 49.6 36 52 36H60C62.4 36 64 37.6 64 40V68C64 70.4 62.4 72 60 72H12C9.6 72 8 70.4 8 68V40C8 37.6 9.6 36 12 36H20C22.4 36 24 34.4 24 32C24 29.6 22.4 28 20 28H12C5.2 28 0 33.2 0 40V68C0 74.8 5.2 80 12 80H60C66.8 80 72 74.8 72 68V40C72 33.2 66.8 28 60 28ZM26.8 18.8L32 13.6V60C32 62.4 33.6 64 36 64C38.4 64 40 62.4 40 60V13.6L45.2 18.8C46 19.6 46.8 20 48 20C49.2 20 50 19.6 50.8 18.8C52.4 17.2 52.4 14.8 50.8 13.2L38.8 1.2C37.2 -0.4 34.8 -0.4 33.2 1.2L21.2 13.2C19.6 14.8 19.6 17.2 21.2 18.8C22.8 20.4 25.2 20.4 26.8 18.8Z" fill="#F4F1EF"/>
</svg>
